<?xml version="1.0" encoding="UTF-8" standalone="no"?>
<!-- Created with Inkscape (http://www.inkscape.org/) -->

<svg
   version="1.1"
   id="svg7011"
   width="880"
   height="880"
   viewBox="0 0 880 880"
   sodipodi:docname="hills-mountains-vector-pdv.svg"
   inkscape:version="1.2 (dc2aedaf03, 2022-05-15)"
   xmlns:inkscape="http://www.inkscape.org/namespaces/inkscape"
   xmlns:sodipodi="http://sodipodi.sourceforge.net/DTD/sodipodi-0.dtd"
   xmlns="http://www.w3.org/2000/svg"
   xmlns:svg="http://www.w3.org/2000/svg">
  <defs
     id="defs7015">
    <clipPath
       clipPathUnits="userSpaceOnUse"
       id="clipPath7029">
      <path
         d="M 0,660 H 660 V 0 H 0 Z"
         id="path7027" />
    </clipPath>
    <clipPath
       clipPathUnits="userSpaceOnUse"
       id="clipPath7105">
      <path
         d="m 599.422,61.507 0.155,0.002 -0.009,0.37 c -0.047,-0.127 -0.1,-0.247 -0.146,-0.372"
         id="path7103" />
    </clipPath>
    <clipPath
       clipPathUnits="userSpaceOnUse"
       id="clipPath7113">
      <path
         d="m 599.913,62.405 h 0.467 v -0.467 h -0.467 z"
         id="path7111" />
    </clipPath>
    <clipPath
       clipPathUnits="userSpaceOnUse"
       id="clipPath7123">
      <path
         d="m 599.91273,62.405085 h 0.15591 v -0.372206 h -0.15591 z"
         id="path7121" />
    </clipPath>
    <linearGradient
       x1="0"
       y1="0"
       x2="1"
       y2="0"
       gradientUnits="userSpaceOnUse"
       gradientTransform="matrix(0.1556,0,0,-0.1556,599.91225,62.218855)"
       spreadMethod="pad"
       id="linearGradient7129">
      <stop
         style="stop-opacity:1;stop-color:#ffffff"
         offset="0"
         id="stop7125" />
      <stop
         style="stop-opacity:1;stop-color:#231f20"
         offset="1"
         id="stop7127" />
    </linearGradient>
  </defs>
  <sodipodi:namedview
     id="namedview7013"
     pagecolor="#ffffff"
     bordercolor="#000000"
     borderopacity="0.25"
     inkscape:showpageshadow="2"
     inkscape:pageopacity="0.0"
     inkscape:pagecheckerboard="0"
     inkscape:deskcolor="#d1d1d1"
     showgrid="false"
     inkscape:zoom="0.95113636"
     inkscape:cx="441.05137"
     inkscape:cy="440.52569"
     inkscape:window-width="1920"
     inkscape:window-height="1017"
     inkscape:window-x="-8"
     inkscape:window-y="-8"
     inkscape:window-maximized="1"
     inkscape:current-layer="g7019">
    <inkscape:page
       x="0"
       y="0"
       id="page7017"
       width="880"
       height="880" />
  </sodipodi:namedview>
  <g
     id="g7019"
     inkscape:groupmode="layer"
     inkscape:label="Page 1"
     transform="matrix(1.3333333,0,0,-1.3333333,0,880)">
    <path
       d="M 0.222,0 H 659.766 V 659.311 H 0.222 Z"
       style="fill:#d1e8ff;fill-opacity:1;fill-rule:nonzero;stroke:none"
       id="path7021" />
    <g
       id="g7023">
      <g
         id="g7025"
         clip-path="url(#clipPath7029)">
        <g
           id="g7031"
           transform="translate(659.7666,451.7422)">
          <path
             d="m 0,0 v -314.374 l -181.401,-65.89 h -31.497 l -446.646,84.781 V 22.812 c 4.398,6.393 18.203,12.543 26.542,11.922 20.086,-1.498 8.493,11.115 21.861,11.115 12.162,0 15.798,18.743 25.091,9.026 13.951,-14.591 30.832,5.737 36.656,-9.952 4.044,-10.893 53.809,-8.939 57.433,-17.124 5.961,-13.47 36.604,-7.161 45.549,0.371 10.156,8.552 50.223,25.054 50.18,30.648 -0.193,24.992 22.381,8.975 43.539,36.365 8.727,11.298 31.154,5.786 41.685,17.204 7.177,7.781 33.69,30.723 45.919,17.759 16.063,-17.03 28.928,-5.37 32.501,-10.19 11.905,-16.059 34.978,-13.125 40.68,-22.153 17.636,-27.927 40.355,-10.097 55.658,-15.985 20.467,-7.876 18.512,-16.192 20.778,-19.056 14.988,-18.956 18.026,-16.598 32.183,-39.991 0.127,-0.01 27.679,-13.376 27.948,-1.245 0.434,19.543 24.81,-21.023 35.81,-13.338 C -12.693,12.964 -8.418,7.153 0,0"
             style="fill:#ffffff;fill-opacity:1;fill-rule:evenodd;stroke:none"
             id="path7033" />
        </g>
        <g
           id="g7035"
           transform="translate(0.2231,355.6284)">
          <path
             d="m 0,0 v 118.926 c 4.398,6.393 18.202,12.543 26.542,11.922 20.086,-1.498 8.492,11.115 21.86,11.115 9.434,0 13.738,11.271 19.529,11.798 l 0.104,-0.035 c -0.056,-2.848 -2.59,-10.817 -4.704,-12.649 -6.922,-6.002 -5.811,-14.099 -7.674,-21.888 -1.841,-7.688 3.009,-1.051 -5.4,-11.156 -1.935,-2.326 7.262,-9.661 -9.303,-20.882 C 37.71,84.955 40.464,72.203 28.872,76.777 29.008,79.822 33.095,91.11 25.246,87.006 24.363,86.543 16.83,69.43 16.83,65.078 c 0,-15.15 8.534,2.469 6.061,-18.103 -1.65,-13.722 -4.8,-1.376 -0.622,-20.988 C 23.413,20.615 10.508,7.993 0,0"
             style="fill:#a1c8f0;fill-opacity:1;fill-rule:evenodd;stroke:none"
             id="path7037" />
        </g>
        <g
           id="g7039"
           transform="translate(193.6792,472.3857)">
          <path
             d="m 0,0 c 8.106,1.329 15.861,4.316 19.676,7.526 10.155,8.553 50.223,25.055 50.179,30.648 -0.193,24.992 22.382,8.976 43.54,36.365 8.726,11.299 31.153,5.786 41.685,17.204 1.116,1.212 2.703,2.791 4.631,4.546 -2.885,-4.588 -5.66,-9.47 -8.684,-17.276 -9.803,-25.301 -16.41,-7.825 -16.41,-31.111 0,-6.186 -13.192,-19.528 -18.367,-23.621 -1.559,-1.234 -8.333,-31.985 -22.006,-29.524 -18.824,3.388 -15.704,-12.625 -34.66,-12.625 0,15.732 1.759,8.29 -4.51,13.776 -8.688,7.599 -35.784,-11.071 -35.784,-23.925 0,-13.517 -18.375,-27.45 -26.904,-27.989 -16.303,-1.032 -18.819,-20.765 -29.643,-21.651 -21.025,-1.72 -8.609,1.759 -25.976,-10.348 -14.837,-10.341 7.021,20.899 7.145,20.923 18.708,3.485 17.532,19.013 24.734,19.492 15.76,1.048 11.706,22.522 18.037,27.221 C 1.997,-9.001 0.749,-11.541 0,0"
             style="fill:#a1c8f0;fill-opacity:1;fill-rule:evenodd;stroke:none"
             id="path7041" />
        </g>
        <g
           id="g7043"
           transform="translate(105.5156,294.4941)">
          <path
             d="m 0,0 c 6.821,5.128 16.517,35.637 19.532,28.789 2.354,-5.343 4.179,3.673 11.037,2.012 13.222,-3.201 1.021,-10.589 20.3,-6.141 6.276,1.448 14.904,0.259 21.809,8.298 14.487,16.867 0.198,2.12 25.05,6.564 0.183,0.032 5.297,5.043 10.932,7.384 3.003,1.248 25.899,20.459 28.213,24.39 6.289,10.675 5.149,-9.408 23.119,7.674 4.615,4.388 2.016,-12.415 25.276,0.384 19.753,10.871 9.346,0.923 26.335,17.838 27.698,27.581 -0.795,-9.98 30.845,7.412 5.43,2.983 10.354,-4.619 25.5,1.005 25.082,9.313 18.687,-1.165 32.383,-1.165 14.122,0 16.545,-4.388 31.219,-1.971 9.908,1.632 8.435,0.17 18.87,3.586 6.016,1.969 8.189,4.181 10.931,-7.172 0.585,-2.421 9.693,-13.432 12.848,-13.432 13.175,0 17.913,2.4 27.831,-4.791 4.722,-3.423 31.621,9.472 32.078,10.891 1.69,5.265 14.84,10.548 16.475,1.734 2.399,-12.943 6.311,6.982 5.637,-23.118 -0.14,-6.298 12.775,0.502 15.828,10.996 0.62,2.129 16.372,4.214 23.541,19.109 2.512,5.217 18.408,-6.856 19.997,-2.66 3.386,8.947 8.707,-12.848 4.632,-19.307 -0.429,-0.678 -1.457,-13.454 -2.397,-16.476 -5.127,-16.486 -6.323,-35.084 -13.273,-54.495 -27.944,-78.051 0.809,-73.016 -112.47,-72.875 -53.628,0.064 -87.803,-2.313 -142.087,6.536 -59.117,9.637 -119.587,15.388 -179.112,25.276 C 41.895,-28.91 53.202,-37.049 18.514,-21.708 15.91,-20.558 -3.656,-2.749 0,0"
             style="fill:#a1c8f0;fill-opacity:1;fill-rule:evenodd;stroke:none"
             id="path7045" />
        </g>
        <g
           id="g7047"
           transform="translate(387.3545,405.1895)">
          <path
             d="m 0,0 c 8.296,11.479 5.373,16.445 17.753,17.873 0.625,7.302 5.377,12.786 12.466,13.352 6.045,0.482 4.709,10.42 11.962,11.697 14.147,2.492 26.104,44.746 25.674,26.322 -0.529,-22.544 15.583,13.843 19.028,13.895 4.161,0.061 3.135,-10.996 17.178,9.99 10.924,16.326 5.6,-2.669 19.916,16.873 8.143,11.117 6.266,-9.074 2.355,-12.585 -1.277,-1.146 0.732,-10.789 -3.136,-17.943 -2.392,-4.429 -1.044,-17.047 9.964,-5.135 0.563,0.607 9.608,-2.793 -2.936,-12.969 -5.42,-4.397 3.343,-28.144 -9.649,-29.14 -4.643,-0.356 -17.952,-25.849 -1.653,-18.751 0.194,0.084 10.684,-4.212 -6.684,-12.863 -7.232,-3.603 0.944,-19.055 -17.056,-9.647 -1.566,12.249 -6.304,2.807 3.161,20.379 4.917,9.125 -9.101,-2.88 -8.721,9.568 C 90.096,36.367 78.791,14.101 74.88,13.201 62.186,10.28 70.668,8.961 67.087,17.873 63.872,25.869 57.919,6.537 47.938,4.745 36.797,2.744 47.66,-15.005 16.561,-14.126 c -4.225,0.12 -7.555,-6.275 -18.487,-6.869 -10.41,-0.565 -12.001,-5.088 -12.201,6.061 C -14.168,-12.627 -2.073,-2.868 0,0"
             style="fill:#a1c8f0;fill-opacity:1;fill-rule:evenodd;stroke:none"
             id="path7049" />
        </g>
        <g
           id="g7051"
           transform="translate(659.7666,299.958)">
          <path
             d="m 0,0 v -171.201 c -2.821,-1.505 -5.529,-2.9 -8.083,-4.172 -72.208,-35.982 -191.341,-71.35 -272.551,-73.216 -69.933,0.613 -366.259,50.15 -378.91,145.97 v 12.391 c 0.313,2.573 0.771,5.17 1.502,7.806 14.048,50.665 108.124,66.787 152.967,82.006 62.432,21.188 100.858,45.626 158.051,71.411 112.317,50.638 143.157,9.641 248.263,-33.914 9.559,-3.961 19.131,-7.729 28.778,-11.472 C -50.568,18.183 -24.951,9.947 0,0"
             style="fill:#94ab13;fill-opacity:1;fill-rule:evenodd;stroke:none"
             id="path7053" />
        </g>
        <g
           id="g7055"
           transform="translate(368.1387,233.583)">
          <path
             d="m 0,0 c 73.959,34.743 152.86,39.83 234.232,30.102 1.235,-8.337 2.471,-16.674 3.706,-25.011 C 148.569,21.24 73.49,-0.714 10.059,-53.731 6.706,-35.82 3.353,-17.91 0,0"
             style="fill:#6b3f13;fill-opacity:1;fill-rule:evenodd;stroke:none"
             id="path7057" />
        </g>
        <g
           id="g7059"
           transform="translate(659.7666,97.2715)">
          <path
             d="M 0,0 V -97.505 H -659.544 V 200.86 c 33.633,-1.768 64.785,-2.808 89.412,0.197 89.938,10.968 120.609,35.527 215.445,-5.339 85.135,-36.686 147.945,-100.036 234.033,-141.95 16.678,-8.12 33.337,-15.352 50.426,-22.534 C -48.409,22.19 -23.468,12.367 0,0"
             style="fill:#a7bf1c;fill-opacity:1;fill-rule:evenodd;stroke:none"
             id="path7061" />
        </g>
        <g
           id="g7063"
           transform="translate(419.3584,225.6201)">
          <path
             d="M 0,0 C 12.96,-8.954 25.921,-18.002 39.124,-26.89 25.378,-59.774 -0.675,-79.118 -29.581,-95.329 -48.572,-80.662 -67.56,-65.995 -86.551,-51.328 -53.499,-38.719 -21.367,-25.127 0,0"
             style="fill:#804f1f;fill-opacity:1;fill-rule:evenodd;stroke:none"
             id="path7065" />
        </g>
        <g
           id="g7067"
           transform="translate(659.7666,422.0322)">
          <path
             d="m 0,0 v -422.266 h -624.114 c -3.95,61.178 -19.373,136.299 49.51,157.227 119.074,32.008 170.673,-6.764 282.635,-7.021 76.937,1.015 152.945,19.458 191.984,91.861 C -54.047,-91.737 -48.77,-28.805 0,0"
             style="fill:#bad526;fill-opacity:1;fill-rule:evenodd;stroke:none"
             id="path7069" />
        </g>
        <g
           id="g7071"
           transform="translate(457.8203,162.0332)">
          <path
             d="M 0,0 C 20.727,6.169 40.113,15.128 57.244,27.805 83.18,1.14 115.682,-14.034 151.5,-23.405 116.916,-38.689 82.332,-53.975 47.75,-69.258 31.833,-46.172 15.917,-23.086 0,0"
             style="fill:#8c5926;fill-opacity:1;fill-rule:evenodd;stroke:none"
             id="path7073" />
        </g>
        <g
           id="g7075"
           transform="translate(659.7666,187.5166)">
          <path
             d="m 0,0 v -187.75 h -659.544 v 156.659 c 105.157,30.434 218.078,93.154 333.891,56.525 104.037,-32.907 154.446,-82.957 275.127,-44.692 l 5.628,1.783 C -28.677,-12.065 -14.048,-6.039 0,0"
             style="fill:#cfe35d;fill-opacity:1;fill-rule:evenodd;stroke:none"
             id="path7077" />
        </g>
        <g
           id="g7079"
           transform="translate(464.9346,-0.2334)">
          <path
             d="M 0,0 H -230.657 C -134.355,39.589 -70.479,99.812 -28.523,173.982 7.51,162.86 35.77,157.689 75.053,155.015 71.522,99.086 43.981,45.424 0,0"
             style="fill:#996633;fill-opacity:1;fill-rule:evenodd;stroke:none"
             id="path7081" />
        </g>
        <g
           id="g7083"
           transform="translate(395.2266,558.7295)">
          <path
             d="m 0,0 c 0.853,-8.61 -18.295,-14.81 -18.295,-24.944 0,-11.089 -13.267,-12.931 -12.505,-29.246 0.154,-3.281 -10.855,-14.207 -12.427,-25.937 -0.795,-5.942 -20.311,-6.277 -6.523,0.966 3.31,1.738 -5.571,25.271 8.801,32.501 5.655,2.845 3.325,29.684 21.806,45.853 1.139,0.996 10.25,1.96 13.314,5.744 C -1.549,10.223 -0.169,1.709 0,0"
             style="fill:#a1c8f0;fill-opacity:1;fill-rule:evenodd;stroke:none"
             id="path7085" />
        </g>
        <g
           id="g7087"
           transform="translate(422.5537,534.6455)">
          <path
             d="m 0,0 c -34.656,-18.243 -12.934,-14.539 -30.298,-31.535 -11.458,-11.216 10.107,3.528 14.239,3.705 6.313,0.27 37.807,20.68 26.945,30.41 C 9.474,3.843 2.261,1.19 0,0"
             style="fill:#a1c8f0;fill-opacity:1;fill-rule:evenodd;stroke:none"
             id="path7089" />
        </g>
        <g
           id="g7091"
           transform="translate(422.3223,485.3179)">
          <path
             d="m 0,0 c 1.682,7.746 -6.172,7.455 -9.687,-1.74 -0.036,-0.094 -12.509,-20.201 -13.671,-20.724 -9.87,-4.446 -30.4,-9.572 -35.702,-18.102 -4.145,-6.67 -30.793,-5.107 -30.794,-16.979 14.541,-5.237 27.554,12.662 47.97,12.386 22.933,-0.309 30.307,17.109 41.686,34.156 C 0.83,-9.463 -0.283,-1.307 0,0"
             style="fill:#a1c8f0;fill-opacity:1;fill-rule:evenodd;stroke:none"
             id="path7093" />
        </g>
        <g
           id="g7095"
           transform="translate(121.4966,445.4858)">
          <path
             d="m 0,0 c -7.281,16.366 -8.936,6.496 -12.274,28.22 -1.539,10.017 -3.705,-14.896 -3.705,-15.947 0,-19.342 -40.613,44.831 -21.928,3.244 5.802,-12.914 11.08,-21.305 7.225,-36.009 -0.12,-0.458 -0.16,-8.099 -5.677,-5.597 -1.814,0.823 -6.489,31.72 -13.233,20.419 -0.589,-0.987 3.312,-30.579 -2.237,-42.81 -7.005,-15.443 -0.389,-26.138 8.482,4.168 3.317,11.327 10.32,4.338 20.42,14.9 8.899,9.308 -9.419,10.847 16.595,17.297 9.049,2.244 14.424,11.193 18.95,18.87 C 13.358,8.012 2.418,8.198 0,0"
             style="fill:#a1c8f0;fill-opacity:1;fill-rule:evenodd;stroke:none"
             id="path7097" />
        </g>
      </g>
    </g>
    <g
       id="g7099">
      <g
         id="g7101"
         clip-path="url(#clipPath7105)">
        <g
           id="g7107">
          <g
             id="g7109"
             clip-path="url(#clipPath7113)">
            <g
               id="g7115">
              <g
                 id="g7117">
                <g
                   id="g7119"
                   clip-path="url(#clipPath7123)">
                  <path
                     d="m 599.913,62.405 h 0.467 v -0.467 h -0.467 z"
                     style="fill:url(#linearGradient7129);stroke:none"
                     id="path7131" />
                </g>
              </g>
            </g>
          </g>
        </g>
      </g>
    </g>
  </g>
</svg>
